<?xml version="1.0" encoding="UTF-8" standalone="no"?>
<!DOCTYPE svg PUBLIC "-//W3C//DTD SVG 1.1//EN"
 "http://www.w3.org/Graphics/SVG/1.1/DTD/svg11.dtd">
<!-- Generated by graphviz version 2.34.0 (20140114.1349)
 -->
<!-- Title: controllers_diagram Pages: 1 -->
<svg width="1008pt" height="705pt"
 viewBox="0.00 0.00 1008.38 705.27" xmlns="http://www.w3.org/2000/svg" xmlns:xlink="http://www.w3.org/1999/xlink">
<g id="graph0" class="graph" transform="scale(1 1) rotate(0) translate(4 701.27)">
<title>controllers_diagram</title>
<polygon fill="white" stroke="white" points="-4,4 -4,-701.27 1004.38,-701.27 1004.38,4 -4,4"/>
<!-- _diagram_info -->
<g id="node1" class="node"><title>_diagram_info</title>
<text text-anchor="start" x="801" y="-374" font-family="Times,serif" font-size="13.00">Controllers diagram</text>
<text text-anchor="start" x="801" y="-358.4" font-family="Times,serif" font-size="13.00">Date: Jan 14 2014 &#45; 14:53</text>
<text text-anchor="start" x="801" y="-342.8" font-family="Times,serif" font-size="13.00">Migration version: 20131214225204</text>
<text text-anchor="start" x="801" y="-327.2" font-family="Times,serif" font-size="13.00">Generated by RailRoady 1.1.1</text>
<text text-anchor="start" x="801" y="-311.6" font-family="Times,serif" font-size="13.00">http://railroady.prestonlee.com</text>
</g>
<!-- ApplicationController -->
<g id="node2" class="node"><title>ApplicationController</title>
<path fill="none" stroke="black" d="M239.064,-257.866C239.064,-257.866 417.699,-257.866 417.699,-257.866 423.699,-257.866 429.699,-263.866 429.699,-269.866 429.699,-269.866 429.699,-344.266 429.699,-344.266 429.699,-350.266 423.699,-356.266 417.699,-356.266 417.699,-356.266 239.064,-356.266 239.064,-356.266 233.064,-356.266 227.064,-350.266 227.064,-344.266 227.064,-344.266 227.064,-269.866 227.064,-269.866 227.064,-263.866 233.064,-257.866 239.064,-257.866"/>
<text text-anchor="middle" x="328.382" y="-338.266" font-family="Times,serif" font-size="14.00">ApplicationController</text>
<polyline fill="none" stroke="black" points="227.064,-331.466 429.699,-331.466 "/>
<text text-anchor="start" x="235.064" y="-313.466" font-family="Times,serif" font-size="14.00">_one_time_conditions_valid_82?</text>
<polyline fill="none" stroke="black" points="227.064,-306.666 429.699,-306.666 "/>
<polyline fill="none" stroke="black" points="227.064,-282.666 429.699,-282.666 "/>
<text text-anchor="start" x="235.064" y="-264.666" font-family="Times,serif" font-size="14.00">_layout</text>
</g>
<!-- ProlearningController -->
<g id="node7" class="node"><title>ProlearningController</title>
<path fill="none" stroke="black" d="M488.118,-242.606C488.118,-242.606 666.753,-242.606 666.753,-242.606 672.753,-242.606 678.753,-248.606 678.753,-254.606 678.753,-254.606 678.753,-446.606 678.753,-446.606 678.753,-452.606 672.753,-458.606 666.753,-458.606 666.753,-458.606 488.118,-458.606 488.118,-458.606 482.118,-458.606 476.118,-452.606 476.118,-446.606 476.118,-446.606 476.118,-254.606 476.118,-254.606 476.118,-248.606 482.118,-242.606 488.118,-242.606"/>
<text text-anchor="middle" x="577.435" y="-440.606" font-family="Times,serif" font-size="14.00">ProlearningController</text>
<polyline fill="none" stroke="black" points="476.118,-433.806 678.753,-433.806 "/>
<text text-anchor="start" x="484.118" y="-415.806" font-family="Times,serif" font-size="14.00">_callback_before_85</text>
<text text-anchor="start" x="484.118" y="-399.006" font-family="Times,serif" font-size="14.00">_one_time_conditions_valid_84?</text>
<text text-anchor="start" x="484.118" y="-382.206" font-family="Times,serif" font-size="14.00">_one_time_conditions_valid_86?</text>
<text text-anchor="start" x="484.118" y="-365.406" font-family="Times,serif" font-size="14.00">create</text>
<text text-anchor="start" x="484.118" y="-348.606" font-family="Times,serif" font-size="14.00">destroy</text>
<text text-anchor="start" x="484.118" y="-331.806" font-family="Times,serif" font-size="14.00">flash_model</text>
<text text-anchor="start" x="484.118" y="-315.006" font-family="Times,serif" font-size="14.00">school</text>
<text text-anchor="start" x="484.118" y="-298.206" font-family="Times,serif" font-size="14.00">update</text>
<polyline fill="none" stroke="black" points="476.118,-291.406 678.753,-291.406 "/>
<polyline fill="none" stroke="black" points="476.118,-267.406 678.753,-267.406 "/>
<text text-anchor="start" x="484.118" y="-249.406" font-family="Times,serif" font-size="14.00">_layout</text>
</g>
<!-- ApplicationController&#45;&gt;ProlearningController -->
<g id="edge5" class="edge"><title>ApplicationController&#45;&gt;ProlearningController</title>
<path fill="none" stroke="black" d="M430.041,-324.838C443.577,-327.204 457.487,-329.636 471.101,-332.016"/>
<polyline fill="none" stroke="black" points="476.101,-332.89 471.176,-332.029 "/>
</g>
<!-- SchoolsController -->
<g id="node8" class="node"><title>SchoolsController</title>
<path fill="none" stroke="black" d="M19.3933,-281.045C19.3933,-281.045 113.276,-281.045 113.276,-281.045 119.276,-281.045 125.276,-287.045 125.276,-293.045 125.276,-293.045 125.276,-366.645 125.276,-366.645 125.276,-372.645 119.276,-378.645 113.276,-378.645 113.276,-378.645 19.3933,-378.645 19.3933,-378.645 13.3933,-378.645 7.39326,-372.645 7.39326,-366.645 7.39326,-366.645 7.39326,-293.045 7.39326,-293.045 7.39326,-287.045 13.3933,-281.045 19.3933,-281.045"/>
<text text-anchor="middle" x="66.3347" y="-360.645" font-family="Times,serif" font-size="14.00">SchoolsController</text>
<polyline fill="none" stroke="black" points="7.39326,-353.845 125.276,-353.845 "/>
<polyline fill="none" stroke="black" points="7.39326,-329.845 125.276,-329.845 "/>
<polyline fill="none" stroke="black" points="7.39326,-305.845 125.276,-305.845 "/>
<text text-anchor="start" x="15.3933" y="-287.845" font-family="Times,serif" font-size="14.00">_layout</text>
</g>
<!-- ApplicationController&#45;&gt;SchoolsController -->
<g id="edge6" class="edge"><title>ApplicationController&#45;&gt;SchoolsController</title>
<path fill="none" stroke="black" d="M226.692,-315.905C194.458,-318.707 159.728,-321.726 130.858,-324.236"/>
<polyline fill="none" stroke="black" points="125.538,-324.698 130.519,-324.265 "/>
</g>
<!-- StaticController -->
<g id="node9" class="node"><title>StaticController</title>
<path fill="none" stroke="black" d="M26.5168,-0.5C26.5168,-0.5 212.152,-0.5 212.152,-0.5 218.152,-0.5 224.152,-6.5 224.152,-12.5 224.152,-12.5 224.152,-103.7 224.152,-103.7 224.152,-109.7 218.152,-115.7 212.152,-115.7 212.152,-115.7 26.5168,-115.7 26.5168,-115.7 20.5168,-115.7 14.5168,-109.7 14.5168,-103.7 14.5168,-103.7 14.5168,-12.5 14.5168,-12.5 14.5168,-6.5 20.5168,-0.5 26.5168,-0.5"/>
<text text-anchor="middle" x="119.334" y="-97.7" font-family="Times,serif" font-size="14.00">StaticController</text>
<polyline fill="none" stroke="black" points="14.5168,-90.9 224.152,-90.9 "/>
<text text-anchor="start" x="22.5168" y="-72.9" font-family="Times,serif" font-size="14.00">_one_time_conditions_valid_282?</text>
<polyline fill="none" stroke="black" points="14.5168,-66.1 224.152,-66.1 "/>
<polyline fill="none" stroke="black" points="14.5168,-42.1 224.152,-42.1 "/>
<text text-anchor="start" x="22.5168" y="-24.1" font-family="Times,serif" font-size="14.00">_layout</text>
<text text-anchor="start" x="22.5168" y="-7.3" font-family="Times,serif" font-size="14.00">redirect_logged_in_users</text>
</g>
<!-- ApplicationController&#45;&gt;StaticController -->
<g id="edge7" class="edge"><title>ApplicationController&#45;&gt;StaticController</title>
<path fill="none" stroke="black" d="M286.831,-257.58C253.61,-218.016 206.858,-162.337 171.187,-119.854"/>
<polyline fill="none" stroke="black" points="167.77,-115.785 170.985,-119.614 "/>
</g>
<!-- CoursesController -->
<g id="node3" class="node"><title>CoursesController</title>
<path fill="none" stroke="black" d="M640.695,-466.921C640.695,-466.921 826.33,-466.921 826.33,-466.921 832.33,-466.921 838.33,-472.921 838.33,-478.921 838.33,-478.921 838.33,-670.921 838.33,-670.921 838.33,-676.921 832.33,-682.921 826.33,-682.921 826.33,-682.921 640.695,-682.921 640.695,-682.921 634.695,-682.921 628.695,-676.921 628.695,-670.921 628.695,-670.921 628.695,-478.921 628.695,-478.921 628.695,-472.921 634.695,-466.921 640.695,-466.921"/>
<text text-anchor="middle" x="733.512" y="-664.921" font-family="Times,serif" font-size="14.00">CoursesController</text>
<polyline fill="none" stroke="black" points="628.695,-658.121 838.33,-658.121 "/>
<text text-anchor="start" x="636.695" y="-640.121" font-family="Times,serif" font-size="14.00">_callback_before_119</text>
<text text-anchor="start" x="636.695" y="-623.321" font-family="Times,serif" font-size="14.00">_callback_before_121</text>
<text text-anchor="start" x="636.695" y="-606.521" font-family="Times,serif" font-size="14.00">_one_time_conditions_valid_120?</text>
<text text-anchor="start" x="636.695" y="-589.721" font-family="Times,serif" font-size="14.00">_one_time_conditions_valid_122?</text>
<text text-anchor="start" x="636.695" y="-572.921" font-family="Times,serif" font-size="14.00">_one_time_conditions_valid_124?</text>
<text text-anchor="start" x="636.695" y="-556.121" font-family="Times,serif" font-size="14.00">_one_time_conditions_valid_128?</text>
<polyline fill="none" stroke="black" points="628.695,-549.321 838.33,-549.321 "/>
<polyline fill="none" stroke="black" points="628.695,-525.321 838.33,-525.321 "/>
<text text-anchor="start" x="636.695" y="-507.321" font-family="Times,serif" font-size="14.00">_layout</text>
<text text-anchor="start" x="636.695" y="-490.521" font-family="Times,serif" font-size="14.00">load_new_path</text>
<text text-anchor="start" x="636.695" y="-473.721" font-family="Times,serif" font-size="14.00">setup_teacher</text>
</g>
<!-- DashboardController -->
<g id="node4" class="node"><title>DashboardController</title>
<path fill="none" stroke="black" d="M407.402,-6.16173C407.402,-6.16173 517.596,-6.16173 517.596,-6.16173 523.596,-6.16173 529.596,-12.1617 529.596,-18.1617 529.596,-18.1617 529.596,-92.5617 529.596,-92.5617 529.596,-98.5617 523.596,-104.562 517.596,-104.562 517.596,-104.562 407.402,-104.562 407.402,-104.562 401.402,-104.562 395.402,-98.5617 395.402,-92.5617 395.402,-92.5617 395.402,-18.1617 395.402,-18.1617 395.402,-12.1617 401.402,-6.16173 407.402,-6.16173"/>
<text text-anchor="middle" x="462.499" y="-86.5617" font-family="Times,serif" font-size="14.00">DashboardController</text>
<polyline fill="none" stroke="black" points="395.402,-79.7617 529.596,-79.7617 "/>
<text text-anchor="start" x="403.402" y="-61.7617" font-family="Times,serif" font-size="14.00">index</text>
<polyline fill="none" stroke="black" points="395.402,-54.9617 529.596,-54.9617 "/>
<polyline fill="none" stroke="black" points="395.402,-30.9617 529.596,-30.9617 "/>
<text text-anchor="start" x="403.402" y="-12.9617" font-family="Times,serif" font-size="14.00">_layout</text>
</g>
<!-- DepartmentsController -->
<g id="node5" class="node"><title>DepartmentsController</title>
<path fill="none" stroke="black" d="M12,-514.37C12,-514.37 197.635,-514.37 197.635,-514.37 203.635,-514.37 209.635,-520.37 209.635,-526.37 209.635,-526.37 209.635,-684.77 209.635,-684.77 209.635,-690.77 203.635,-696.77 197.635,-696.77 197.635,-696.77 12,-696.77 12,-696.77 6,-696.77 0,-690.77 0,-684.77 0,-684.77 0,-526.37 0,-526.37 0,-520.37 6,-514.37 12,-514.37"/>
<text text-anchor="middle" x="104.817" y="-678.77" font-family="Times,serif" font-size="14.00">DepartmentsController</text>
<polyline fill="none" stroke="black" points="0,-671.97 209.635,-671.97 "/>
<text text-anchor="start" x="8" y="-653.97" font-family="Times,serif" font-size="14.00">_callback_before_177</text>
<text text-anchor="start" x="8" y="-637.17" font-family="Times,serif" font-size="14.00">_callback_before_179</text>
<text text-anchor="start" x="8" y="-620.37" font-family="Times,serif" font-size="14.00">_one_time_conditions_valid_178?</text>
<text text-anchor="start" x="8" y="-603.57" font-family="Times,serif" font-size="14.00">_one_time_conditions_valid_180?</text>
<text text-anchor="start" x="8" y="-586.77" font-family="Times,serif" font-size="14.00">_one_time_conditions_valid_182?</text>
<polyline fill="none" stroke="black" points="0,-579.97 209.635,-579.97 "/>
<polyline fill="none" stroke="black" points="0,-555.97 209.635,-555.97 "/>
<text text-anchor="start" x="8" y="-537.97" font-family="Times,serif" font-size="14.00">_layout</text>
<text text-anchor="start" x="8" y="-521.17" font-family="Times,serif" font-size="14.00">load_new_path</text>
</g>
<!-- ProgramsController -->
<g id="node6" class="node"><title>ProgramsController</title>
<path fill="none" stroke="black" d="M320.034,-539.539C320.034,-539.539 505.669,-539.539 505.669,-539.539 511.669,-539.539 517.669,-545.539 517.669,-551.539 517.669,-551.539 517.669,-659.539 517.669,-659.539 517.669,-665.539 511.669,-671.539 505.669,-671.539 505.669,-671.539 320.034,-671.539 320.034,-671.539 314.034,-671.539 308.034,-665.539 308.034,-659.539 308.034,-659.539 308.034,-551.539 308.034,-551.539 308.034,-545.539 314.034,-539.539 320.034,-539.539"/>
<text text-anchor="middle" x="412.851" y="-653.539" font-family="Times,serif" font-size="14.00">ProgramsController</text>
<polyline fill="none" stroke="black" points="308.034,-646.739 517.669,-646.739 "/>
<text text-anchor="start" x="316.034" y="-628.739" font-family="Times,serif" font-size="14.00">_callback_before_219</text>
<text text-anchor="start" x="316.034" y="-611.939" font-family="Times,serif" font-size="14.00">_one_time_conditions_valid_220?</text>
<text text-anchor="start" x="316.034" y="-595.139" font-family="Times,serif" font-size="14.00">new</text>
<polyline fill="none" stroke="black" points="308.034,-588.339 517.669,-588.339 "/>
<polyline fill="none" stroke="black" points="308.034,-564.339 517.669,-564.339 "/>
<text text-anchor="start" x="316.034" y="-546.339" font-family="Times,serif" font-size="14.00">_layout</text>
</g>
<!-- ProlearningController&#45;&gt;CoursesController -->
<g id="edge1" class="edge"><title>ProlearningController&#45;&gt;CoursesController</title>
<path fill="none" stroke="black" d="M652.731,-458.821C653.608,-460.082 654.485,-461.343 655.363,-462.604"/>
<polyline fill="none" stroke="black" points="658.345,-466.891 655.49,-462.786 "/>
</g>
<!-- ProlearningController&#45;&gt;DashboardController -->
<g id="edge2" class="edge"><title>ProlearningController&#45;&gt;DashboardController</title>
<path fill="none" stroke="black" d="M535.29,-242.344C517.693,-197.141 498.027,-146.625 483.577,-109.506"/>
<polyline fill="none" stroke="black" points="481.663,-104.589 483.477,-109.249 "/>
</g>
<!-- ProlearningController&#45;&gt;DepartmentsController -->
<g id="edge3" class="edge"><title>ProlearningController&#45;&gt;DepartmentsController</title>
<path fill="none" stroke="black" d="M476.047,-405.302C399.059,-446.835 293.338,-503.868 214.404,-546.451"/>
<polyline fill="none" stroke="black" points="209.719,-548.978 214.12,-546.604 "/>
</g>
<!-- ProlearningController&#45;&gt;ProgramsController -->
<g id="edge4" class="edge"><title>ProlearningController&#45;&gt;ProgramsController</title>
<path fill="none" stroke="black" d="M507.637,-458.721C490.976,-484.527 473.616,-511.417 458.374,-535.026"/>
<polyline fill="none" stroke="black" points="455.554,-539.395 458.266,-535.195 "/>
</g>
<!-- TeachersController -->
<g id="node10" class="node"><title>TeachersController</title>
<path fill="none" stroke="black" d="M658.796,-67.4875C658.796,-67.4875 844.431,-67.4875 844.431,-67.4875 850.431,-67.4875 856.431,-73.4875 856.431,-79.4875 856.431,-79.4875 856.431,-170.687 856.431,-170.687 856.431,-176.687 850.431,-182.687 844.431,-182.687 844.431,-182.687 658.796,-182.687 658.796,-182.687 652.796,-182.687 646.796,-176.687 646.796,-170.687 646.796,-170.687 646.796,-79.4875 646.796,-79.4875 646.796,-73.4875 652.796,-67.4875 658.796,-67.4875"/>
<text text-anchor="middle" x="751.614" y="-164.687" font-family="Times,serif" font-size="14.00">TeachersController</text>
<polyline fill="none" stroke="black" points="646.796,-157.887 856.431,-157.887 "/>
<text text-anchor="start" x="654.796" y="-139.887" font-family="Times,serif" font-size="14.00">_callback_before_325</text>
<text text-anchor="start" x="654.796" y="-123.087" font-family="Times,serif" font-size="14.00">_one_time_conditions_valid_326?</text>
<polyline fill="none" stroke="black" points="646.796,-116.287 856.431,-116.287 "/>
<polyline fill="none" stroke="black" points="646.796,-92.2875 856.431,-92.2875 "/>
<text text-anchor="start" x="654.796" y="-74.2875" font-family="Times,serif" font-size="14.00">_layout</text>
</g>
<!-- ProlearningController&#45;&gt;TeachersController -->
<g id="edge8" class="edge"><title>ProlearningController&#45;&gt;TeachersController</title>
<path fill="none" stroke="black" d="M660.954,-242.47C675.602,-223.504 690.386,-204.363 703.643,-187.198"/>
<polyline fill="none" stroke="black" points="706.979,-182.878 703.923,-186.835 "/>
</g>
</g>
</svg>
