<?xml version="1.0" encoding="UTF-8" standalone="no"?>
<!DOCTYPE svg PUBLIC "-//W3C//DTD SVG 1.1//EN"
 "http://www.w3.org/Graphics/SVG/1.1/DTD/svg11.dtd">
<!-- Generated by graphviz version 2.34.0 (20140114.1349)
 -->
<!-- Title: controllers_diagram Pages: 1 -->
<svg width="831pt" height="490pt"
 viewBox="0.00 0.00 831.38 490.00" xmlns="http://www.w3.org/2000/svg" xmlns:xlink="http://www.w3.org/1999/xlink">
<g id="graph0" class="graph" transform="scale(1 1) rotate(0) translate(4 486)">
<title>controllers_diagram</title>
<polygon fill="white" stroke="white" points="-4,4 -4,-486 827.375,-486 827.375,4 -4,4"/>
<!-- _diagram_info -->
<g id="node1" class="node"><title>_diagram_info</title>
<text text-anchor="start" x="624" y="-465" font-family="Times,serif" font-size="13.00">Controllers diagram</text>
<text text-anchor="start" x="624" y="-449.4" font-family="Times,serif" font-size="13.00">Date: Jan 14 2014 &#45; 14:53</text>
<text text-anchor="start" x="624" y="-433.8" font-family="Times,serif" font-size="13.00">Migration version: 20131214225204</text>
<text text-anchor="start" x="624" y="-418.2" font-family="Times,serif" font-size="13.00">Generated by RailRoady 1.1.1</text>
<text text-anchor="start" x="624" y="-402.6" font-family="Times,serif" font-size="13.00">http://railroady.prestonlee.com</text>
</g>
<!-- ApplicationController -->
<g id="node2" class="node"><title>ApplicationController</title>
<ellipse fill="none" stroke="black" cx="293.359" cy="-195.898" rx="96.1448" ry="18"/>
<text text-anchor="middle" x="293.359" y="-190.298" font-family="Times,serif" font-size="14.00">ApplicationController</text>
</g>
<!-- ProlearningController -->
<g id="node7" class="node"><title>ProlearningController</title>
<ellipse fill="none" stroke="black" cx="489.98" cy="-200.892" rx="95.5699" ry="18"/>
<text text-anchor="middle" x="489.98" y="-195.292" font-family="Times,serif" font-size="14.00">ProlearningController</text>
</g>
<!-- ApplicationController&#45;&gt;ProlearningController -->
<g id="edge5" class="edge"><title>ApplicationController&#45;&gt;ProlearningController</title>
<path fill="none" stroke="black" d="M389.078,-198.329C389.322,-198.335 389.566,-198.342 389.81,-198.348"/>
<polyline fill="none" stroke="black" points="394.939,-198.478 389.94,-198.351 "/>
</g>
<!-- SchoolsController -->
<g id="node8" class="node"><title>SchoolsController</title>
<ellipse fill="none" stroke="black" cx="81.3134" cy="-77.6835" rx="81.1273" ry="18"/>
<text text-anchor="middle" x="81.3134" y="-72.0835" font-family="Times,serif" font-size="14.00">SchoolsController</text>
</g>
<!-- ApplicationController&#45;&gt;SchoolsController -->
<g id="edge6" class="edge"><title>ApplicationController&#45;&gt;SchoolsController</title>
<path fill="none" stroke="black" d="M262.526,-178.709C223.673,-157.048 157.066,-119.915 116.333,-97.2067"/>
<polyline fill="none" stroke="black" points="111.497,-94.5109 115.865,-96.9456 "/>
</g>
<!-- StaticController -->
<g id="node9" class="node"><title>StaticController</title>
<ellipse fill="none" stroke="black" cx="263.143" cy="-18" rx="72.9449" ry="18"/>
<text text-anchor="middle" x="263.143" y="-12.4" font-family="Times,serif" font-size="14.00">StaticController</text>
</g>
<!-- ApplicationController&#45;&gt;StaticController -->
<g id="edge7" class="edge"><title>ApplicationController&#45;&gt;StaticController</title>
<path fill="none" stroke="black" d="M290.296,-177.861C284.776,-145.363 273.169,-77.0264 267.073,-41.1363"/>
<polyline fill="none" stroke="black" points="266.215,-36.0846 267.052,-41.014 "/>
</g>
<!-- CoursesController -->
<g id="node3" class="node"><title>CoursesController</title>
<ellipse fill="none" stroke="black" cx="653.369" cy="-323.312" rx="81.6928" ry="18"/>
<text text-anchor="middle" x="653.369" y="-317.712" font-family="Times,serif" font-size="14.00">CoursesController</text>
</g>
<!-- DashboardController -->
<g id="node4" class="node"><title>DashboardController</title>
<ellipse fill="none" stroke="black" cx="453.634" cy="-24.1932" rx="92.6283" ry="18"/>
<text text-anchor="middle" x="453.634" y="-18.5932" font-family="Times,serif" font-size="14.00">DashboardController</text>
</g>
<!-- DepartmentsController -->
<g id="node5" class="node"><title>DepartmentsController</title>
<ellipse fill="none" stroke="black" cx="116.705" cy="-328.195" rx="100.142" ry="18"/>
<text text-anchor="middle" x="116.705" y="-322.595" font-family="Times,serif" font-size="14.00">DepartmentsController</text>
</g>
<!-- ProgramsController -->
<g id="node6" class="node"><title>ProgramsController</title>
<ellipse fill="none" stroke="black" cx="386.787" cy="-358.543" rx="87.9909" ry="18"/>
<text text-anchor="middle" x="386.787" y="-352.943" font-family="Times,serif" font-size="14.00">ProgramsController</text>
</g>
<!-- ProlearningController&#45;&gt;CoursesController -->
<g id="edge1" class="edge"><title>ProlearningController&#45;&gt;CoursesController</title>
<path fill="none" stroke="black" d="M513.39,-218.432C543.2,-240.767 594.614,-279.289 626.144,-302.913"/>
<polyline fill="none" stroke="black" points="630.267,-306.002 626.265,-303.004 "/>
</g>
<!-- ProlearningController&#45;&gt;DashboardController -->
<g id="edge2" class="edge"><title>ProlearningController&#45;&gt;DashboardController</title>
<path fill="none" stroke="black" d="M486.227,-182.648C479.572,-150.291 465.714,-82.922 458.397,-47.3483"/>
<polyline fill="none" stroke="black" points="457.366,-42.3383 458.374,-47.2358 "/>
</g>
<!-- ProlearningController&#45;&gt;DepartmentsController -->
<g id="edge3" class="edge"><title>ProlearningController&#45;&gt;DepartmentsController</title>
<path fill="none" stroke="black" d="M443.459,-216.757C373.511,-240.613 241.684,-285.571 168.671,-310.472"/>
<polyline fill="none" stroke="black" points="163.518,-312.229 168.25,-310.615 "/>
</g>
<!-- ProlearningController&#45;&gt;ProgramsController -->
<g id="edge4" class="edge"><title>ProlearningController&#45;&gt;ProgramsController</title>
<path fill="none" stroke="black" d="M478.143,-218.977C459.17,-247.961 421.999,-304.748 401.401,-336.217"/>
<polyline fill="none" stroke="black" points="398.487,-340.67 401.225,-336.486 "/>
</g>
<!-- TeachersController -->
<g id="node10" class="node"><title>TeachersController</title>
<ellipse fill="none" stroke="black" cx="666.821" cy="-61.945" rx="84.8036" ry="18"/>
<text text-anchor="middle" x="666.821" y="-56.345" font-family="Times,serif" font-size="14.00">TeachersController</text>
</g>
<!-- ProlearningController&#45;&gt;TeachersController -->
<g id="edge8" class="edge"><title>ProlearningController&#45;&gt;TeachersController</title>
<path fill="none" stroke="black" d="M512.377,-183.294C545.065,-157.611 605.72,-109.953 640.497,-82.6284"/>
<polyline fill="none" stroke="black" points="644.606,-79.3998 640.674,-82.489 "/>
</g>
</g>
</svg>
