<?xml version="1.0" encoding="UTF-8" standalone="no"?>
<!DOCTYPE svg PUBLIC "-//W3C//DTD SVG 1.1//EN"
 "http://www.w3.org/Graphics/SVG/1.1/DTD/svg11.dtd">
<!-- Generated by graphviz version 2.34.0 (20140114.1349)
 -->
<!-- Title: models_diagram Pages: 1 -->
<svg width="949pt" height="1402pt"
 viewBox="0.00 0.00 949.00 1402.00" xmlns="http://www.w3.org/2000/svg" xmlns:xlink="http://www.w3.org/1999/xlink">
<g id="graph0" class="graph" transform="scale(1 1) rotate(0) translate(4 1398)">
<title>models_diagram</title>
<polygon fill="white" stroke="white" points="-4,4 -4,-1398 945,-1398 945,4 -4,4"/>
<!-- _diagram_info -->
<g id="node1" class="node"><title>_diagram_info</title>
<text text-anchor="start" x="7.31226" y="-1377" font-family="Times,serif" font-size="13.00">Models diagram</text>
<text text-anchor="start" x="7.31226" y="-1361.4" font-family="Times,serif" font-size="13.00">Date: Jan 14 2014 &#45; 14:53</text>
<text text-anchor="start" x="7.31226" y="-1345.8" font-family="Times,serif" font-size="13.00">Migration version: 20131214225204</text>
<text text-anchor="start" x="7.31226" y="-1330.2" font-family="Times,serif" font-size="13.00">Generated by RailRoady 1.1.1</text>
<text text-anchor="start" x="7.31226" y="-1314.6" font-family="Times,serif" font-size="13.00">http://railroady.prestonlee.com</text>
</g>
<!-- Ability -->
<g id="node2" class="node"><title>Ability</title>
<polygon fill="none" stroke="black" points="233.166,-1152.2 233.166,-1201.8 288.834,-1201.8 288.834,-1152.2 233.166,-1152.2"/>
<text text-anchor="middle" x="261" y="-1183.8" font-family="Times,serif" font-size="14.00">Ability</text>
<polyline fill="none" stroke="black" points="233.166,-1177 288.834,-1177 "/>
<text text-anchor="middle" x="261" y="-1159" font-family="Times,serif" font-size="14.00"> </text>
</g>
<!-- Course -->
<g id="node3" class="node"><title>Course</title>
<path fill="none" stroke="black" d="M403.439,-91C403.439,-91 522.561,-91 522.561,-91 528.561,-91 534.561,-97 534.561,-103 534.561,-103 534.561,-263 534.561,-263 534.561,-269 528.561,-275 522.561,-275 522.561,-275 403.439,-275 403.439,-275 397.439,-275 391.439,-269 391.439,-263 391.439,-263 391.439,-103 391.439,-103 391.439,-97 397.439,-91 403.439,-91"/>
<text text-anchor="middle" x="463" y="-257" font-family="Times,serif" font-size="14.00">Course</text>
<polyline fill="none" stroke="black" points="391.439,-250.2 534.561,-250.2 "/>
<text text-anchor="start" x="399.439" y="-232.2" font-family="Times,serif" font-size="14.00">id :integer</text>
<text text-anchor="start" x="399.439" y="-215.4" font-family="Times,serif" font-size="14.00">name :string</text>
<text text-anchor="start" x="399.439" y="-198.6" font-family="Times,serif" font-size="14.00">description :text</text>
<text text-anchor="start" x="399.439" y="-181.8" font-family="Times,serif" font-size="14.00">section :string</text>
<text text-anchor="start" x="399.439" y="-165" font-family="Times,serif" font-size="14.00">semester :string</text>
<text text-anchor="start" x="399.439" y="-148.2" font-family="Times,serif" font-size="14.00">teacher_id :integer</text>
<text text-anchor="start" x="399.439" y="-131.4" font-family="Times,serif" font-size="14.00">department_id :integer</text>
<text text-anchor="start" x="399.439" y="-114.6" font-family="Times,serif" font-size="14.00">created_at :datetime</text>
<text text-anchor="start" x="399.439" y="-97.8" font-family="Times,serif" font-size="14.00">updated_at :datetime</text>
</g>
<!-- Uuid -->
<g id="node11" class="node"><title>Uuid</title>
<ellipse fill="none" stroke="black" cx="586" cy="-18" rx="30.0272" ry="18"/>
<text text-anchor="middle" x="586" y="-12.4" font-family="Times,serif" font-size="14.00">Uuid</text>
</g>
<!-- Course&#45;&gt;Uuid -->
<g id="edge2" class="edge"><title>Course&#45;&gt;Uuid</title>
<path fill="none" stroke="#03cab8" d="M466.981,-83.1344C470.607,-72.5298 475.743,-62.5203 482.903,-54 498.933,-34.9259 525.788,-26.2151 548.071,-22.2523"/>
<ellipse fill="none" stroke="#03cab8" cx="465.766" cy="-87.1222" rx="4.00001" ry="4.00001"/>
<ellipse fill="#03cab8" stroke="#03cab8" cx="552.094" cy="-21.619" rx="4.00001" ry="4.00001"/>
<text text-anchor="middle" x="515.048" y="-57.4" font-family="Times,serif" font-size="14.00">uuid_object</text>
</g>
<!-- Department -->
<g id="node4" class="node"><title>Department</title>
<path fill="none" stroke="black" d="M443.826,-552.8C443.826,-552.8 562.174,-552.8 562.174,-552.8 568.174,-552.8 574.174,-558.8 574.174,-564.8 574.174,-564.8 574.174,-691.2 574.174,-691.2 574.174,-697.2 568.174,-703.2 562.174,-703.2 562.174,-703.2 443.826,-703.2 443.826,-703.2 437.826,-703.2 431.826,-697.2 431.826,-691.2 431.826,-691.2 431.826,-564.8 431.826,-564.8 431.826,-558.8 437.826,-552.8 443.826,-552.8"/>
<text text-anchor="middle" x="503" y="-685.2" font-family="Times,serif" font-size="14.00">Department</text>
<polyline fill="none" stroke="black" points="431.826,-678.4 574.174,-678.4 "/>
<text text-anchor="start" x="439.826" y="-660.4" font-family="Times,serif" font-size="14.00">id :integer</text>
<text text-anchor="start" x="439.826" y="-643.6" font-family="Times,serif" font-size="14.00">name :string</text>
<text text-anchor="start" x="439.826" y="-626.8" font-family="Times,serif" font-size="14.00">description :text</text>
<text text-anchor="start" x="439.826" y="-610" font-family="Times,serif" font-size="14.00">program_id :integer</text>
<text text-anchor="start" x="439.826" y="-593.2" font-family="Times,serif" font-size="14.00">courses_count :integer</text>
<text text-anchor="start" x="439.826" y="-576.4" font-family="Times,serif" font-size="14.00">created_at :datetime</text>
<text text-anchor="start" x="439.826" y="-559.6" font-family="Times,serif" font-size="14.00">updated_at :datetime</text>
</g>
<!-- Department&#45;&gt;Course -->
<g id="edge5" class="edge"><title>Department&#45;&gt;Course</title>
<path fill="none" stroke="#519297" d="M488.388,-544.751C487.889,-541.123 487.423,-537.526 487,-534 476.989,-450.569 470.798,-355.41 467.217,-285.396"/>
<ellipse fill="none" stroke="#519297" cx="488.963" cy="-548.773" rx="4.00001" ry="4.00001"/>
<polygon fill="#519297" stroke="#519297" points="467.209,-285.24 471.202,-275.027 466.958,-280.246 466.707,-275.253 466.707,-275.253 466.707,-275.253 466.958,-280.246 462.213,-275.478 467.209,-285.24 467.209,-285.24"/>
</g>
<!-- Teacher -->
<g id="node8" class="node"><title>Teacher</title>
<path fill="none" stroke="black" d="M540.767,-330.4C540.767,-330.4 669.233,-330.4 669.233,-330.4 675.233,-330.4 681.233,-336.4 681.233,-342.4 681.233,-342.4 681.233,-485.6 681.233,-485.6 681.233,-491.6 675.233,-497.6 669.233,-497.6 669.233,-497.6 540.767,-497.6 540.767,-497.6 534.767,-497.6 528.767,-491.6 528.767,-485.6 528.767,-485.6 528.767,-342.4 528.767,-342.4 528.767,-336.4 534.767,-330.4 540.767,-330.4"/>
<text text-anchor="middle" x="605" y="-479.6" font-family="Times,serif" font-size="14.00">Teacher</text>
<polyline fill="none" stroke="black" points="528.767,-472.8 681.233,-472.8 "/>
<text text-anchor="start" x="536.767" y="-454.8" font-family="Times,serif" font-size="14.00">id :integer</text>
<text text-anchor="start" x="536.767" y="-438" font-family="Times,serif" font-size="14.00">first_name :string</text>
<text text-anchor="start" x="536.767" y="-421.2" font-family="Times,serif" font-size="14.00">last_name :string</text>
<text text-anchor="start" x="536.767" y="-404.4" font-family="Times,serif" font-size="14.00">school_id :integer</text>
<text text-anchor="start" x="536.767" y="-387.6" font-family="Times,serif" font-size="14.00">user_id :integer</text>
<text text-anchor="start" x="536.767" y="-370.8" font-family="Times,serif" font-size="14.00">registration_code :string</text>
<text text-anchor="start" x="536.767" y="-354" font-family="Times,serif" font-size="14.00">created_at :datetime</text>
<text text-anchor="start" x="536.767" y="-337.2" font-family="Times,serif" font-size="14.00">updated_at :datetime</text>
</g>
<!-- Department&#45;&gt;Teacher -->
<g id="edge6" class="edge"><title>Department&#45;&gt;Teacher</title>
<path fill="none" stroke="#fa7954" d="M543.248,-543.347C548.974,-531.447 554.889,-519.152 560.687,-507.102"/>
<polygon fill="#fa7954" stroke="#fa7954" points="543.154,-543.544 534.763,-550.604 540.986,-548.049 538.818,-552.555 538.818,-552.555 538.818,-552.555 540.986,-548.049 542.873,-554.506 543.154,-543.544 543.154,-543.544"/>
<polygon fill="#fa7954" stroke="#fa7954" points="560.757,-506.956 569.148,-499.895 562.925,-502.45 565.093,-497.944 565.093,-497.944 565.093,-497.944 562.925,-502.45 561.038,-495.993 560.757,-506.956 560.757,-506.956"/>
</g>
<!-- Department&#45;&gt;Uuid -->
<g id="edge4" class="edge"><title>Department&#45;&gt;Uuid</title>
<path fill="none" stroke="#8f59a5" d="M503.633,-544.477C505.085,-484.643 509.141,-401.942 520,-330 522.46,-313.703 521.684,-308.817 528.903,-294 533.354,-284.865 538.902,-285.298 543,-276 561.307,-234.459 577.338,-100.096 583.41,-43.9829"/>
<ellipse fill="none" stroke="#8f59a5" cx="503.536" cy="-548.766" rx="4" ry="4"/>
<ellipse fill="#8f59a5" stroke="#8f59a5" cx="583.84" cy="-39.9603" rx="4.00001" ry="4.00001"/>
<text text-anchor="middle" x="561.048" y="-297.4" font-family="Times,serif" font-size="14.00">uuid_object</text>
</g>
<!-- Program -->
<g id="node5" class="node"><title>Program</title>
<path fill="none" stroke="black" d="M356.826,-827.2C356.826,-827.2 475.174,-827.2 475.174,-827.2 481.174,-827.2 487.174,-833.2 487.174,-839.2 487.174,-839.2 487.174,-948.8 487.174,-948.8 487.174,-954.8 481.174,-960.8 475.174,-960.8 475.174,-960.8 356.826,-960.8 356.826,-960.8 350.826,-960.8 344.826,-954.8 344.826,-948.8 344.826,-948.8 344.826,-839.2 344.826,-839.2 344.826,-833.2 350.826,-827.2 356.826,-827.2"/>
<text text-anchor="middle" x="416" y="-942.8" font-family="Times,serif" font-size="14.00">Program</text>
<polyline fill="none" stroke="black" points="344.826,-936 487.174,-936 "/>
<text text-anchor="start" x="352.826" y="-918" font-family="Times,serif" font-size="14.00">id :integer</text>
<text text-anchor="start" x="352.826" y="-901.2" font-family="Times,serif" font-size="14.00">title :string</text>
<text text-anchor="start" x="352.826" y="-884.4" font-family="Times,serif" font-size="14.00">school_id :integer</text>
<text text-anchor="start" x="352.826" y="-867.6" font-family="Times,serif" font-size="14.00">courses_count :integer</text>
<text text-anchor="start" x="352.826" y="-850.8" font-family="Times,serif" font-size="14.00">created_at :datetime</text>
<text text-anchor="start" x="352.826" y="-834" font-family="Times,serif" font-size="14.00">updated_at :datetime</text>
</g>
<!-- Program&#45;&gt;Department -->
<g id="edge9" class="edge"><title>Program&#45;&gt;Department</title>
<path fill="none" stroke="#aa2d8a" d="M440.236,-819.456C451.139,-786.372 464.065,-747.149 475.344,-712.921"/>
<ellipse fill="none" stroke="#aa2d8a" cx="438.981" cy="-823.264" rx="4.00001" ry="4.00001"/>
<polygon fill="#aa2d8a" stroke="#aa2d8a" points="475.349,-712.907 482.753,-704.817 476.914,-708.158 478.479,-703.409 478.479,-703.409 478.479,-703.409 476.914,-708.158 474.205,-702 475.349,-712.907 475.349,-712.907"/>
</g>
<!-- Program&#45;&gt;Uuid -->
<g id="edge8" class="edge"><title>Program&#45;&gt;Uuid</title>
<path fill="none" stroke="#f01d37" d="M393.014,-819.084C378.703,-766.587 363,-694.142 363,-629 363,-629 363,-629 363,-182 363,-140.248 355.523,-122.283 382,-90 422.942,-40.0804 501.08,-25.1925 547.867,-20.7951"/>
<ellipse fill="none" stroke="#f01d37" cx="394.139" cy="-823.152" rx="4.00001" ry="4.00001"/>
<ellipse fill="#f01d37" stroke="#f01d37" cx="551.955" cy="-20.4489" rx="4" ry="4"/>
<text text-anchor="middle" x="396.048" y="-408.4" font-family="Times,serif" font-size="14.00">uuid_object</text>
</g>
<!-- Role -->
<g id="node6" class="node"><title>Role</title>
<path fill="none" stroke="black" d="M749.102,-1110.2C749.102,-1110.2 858.898,-1110.2 858.898,-1110.2 864.898,-1110.2 870.898,-1116.2 870.898,-1122.2 870.898,-1122.2 870.898,-1231.8 870.898,-1231.8 870.898,-1237.8 864.898,-1243.8 858.898,-1243.8 858.898,-1243.8 749.102,-1243.8 749.102,-1243.8 743.102,-1243.8 737.102,-1237.8 737.102,-1231.8 737.102,-1231.8 737.102,-1122.2 737.102,-1122.2 737.102,-1116.2 743.102,-1110.2 749.102,-1110.2"/>
<text text-anchor="middle" x="804" y="-1225.8" font-family="Times,serif" font-size="14.00">Role</text>
<polyline fill="none" stroke="black" points="737.102,-1219 870.898,-1219 "/>
<text text-anchor="start" x="745.102" y="-1201" font-family="Times,serif" font-size="14.00">id :integer</text>
<text text-anchor="start" x="745.102" y="-1184.2" font-family="Times,serif" font-size="14.00">name :string</text>
<text text-anchor="start" x="745.102" y="-1167.4" font-family="Times,serif" font-size="14.00">resource_id :integer</text>
<text text-anchor="start" x="745.102" y="-1150.6" font-family="Times,serif" font-size="14.00">resource_type :string</text>
<text text-anchor="start" x="745.102" y="-1133.8" font-family="Times,serif" font-size="14.00">created_at :datetime</text>
<text text-anchor="start" x="745.102" y="-1117" font-family="Times,serif" font-size="14.00">updated_at :datetime</text>
</g>
<!-- User -->
<g id="node9" class="node"><title>User</title>
<path fill="none" stroke="black" d="M748.722,-743.2C748.722,-743.2 929.278,-743.2 929.278,-743.2 935.278,-743.2 941.278,-749.2 941.278,-755.2 941.278,-755.2 941.278,-1032.8 941.278,-1032.8 941.278,-1038.8 935.278,-1044.8 929.278,-1044.8 929.278,-1044.8 748.722,-1044.8 748.722,-1044.8 742.722,-1044.8 736.722,-1038.8 736.722,-1032.8 736.722,-1032.8 736.722,-755.2 736.722,-755.2 736.722,-749.2 742.722,-743.2 748.722,-743.2"/>
<text text-anchor="middle" x="839" y="-1026.8" font-family="Times,serif" font-size="14.00">User</text>
<polyline fill="none" stroke="black" points="736.722,-1020 941.278,-1020 "/>
<text text-anchor="start" x="744.722" y="-1002" font-family="Times,serif" font-size="14.00">id :integer</text>
<text text-anchor="start" x="744.722" y="-985.2" font-family="Times,serif" font-size="14.00">email :string</text>
<text text-anchor="start" x="744.722" y="-968.4" font-family="Times,serif" font-size="14.00">encrypted_password :string</text>
<text text-anchor="start" x="744.722" y="-951.6" font-family="Times,serif" font-size="14.00">reset_password_token :string</text>
<text text-anchor="start" x="744.722" y="-934.8" font-family="Times,serif" font-size="14.00">reset_password_sent_at :datetime</text>
<text text-anchor="start" x="744.722" y="-918" font-family="Times,serif" font-size="14.00">remember_created_at :datetime</text>
<text text-anchor="start" x="744.722" y="-901.2" font-family="Times,serif" font-size="14.00">sign_in_count :integer</text>
<text text-anchor="start" x="744.722" y="-884.4" font-family="Times,serif" font-size="14.00">current_sign_in_at :datetime</text>
<text text-anchor="start" x="744.722" y="-867.6" font-family="Times,serif" font-size="14.00">last_sign_in_at :datetime</text>
<text text-anchor="start" x="744.722" y="-850.8" font-family="Times,serif" font-size="14.00">current_sign_in_ip :string</text>
<text text-anchor="start" x="744.722" y="-834" font-family="Times,serif" font-size="14.00">last_sign_in_ip :string</text>
<text text-anchor="start" x="744.722" y="-817.2" font-family="Times,serif" font-size="14.00">created_at :datetime</text>
<text text-anchor="start" x="744.722" y="-800.4" font-family="Times,serif" font-size="14.00">updated_at :datetime</text>
<text text-anchor="start" x="744.722" y="-783.6" font-family="Times,serif" font-size="14.00">first_name :string</text>
<text text-anchor="start" x="744.722" y="-766.8" font-family="Times,serif" font-size="14.00">last_name :string</text>
<text text-anchor="start" x="744.722" y="-750" font-family="Times,serif" font-size="14.00">school_id :integer</text>
</g>
<!-- Role&#45;&gt;User -->
<g id="edge11" class="edge"><title>Role&#45;&gt;User</title>
<path fill="none" stroke="#a1012f" d="M813.446,-1100.16C815.209,-1086.01 817.111,-1070.74 819.054,-1055.14"/>
<polygon fill="#a1012f" stroke="#a1012f" points="813.442,-1100.19 807.74,-1109.56 812.824,-1105.16 812.206,-1110.12 812.206,-1110.12 812.206,-1110.12 812.824,-1105.16 816.671,-1110.67 813.442,-1100.19 813.442,-1100.19"/>
<polygon fill="#a1012f" stroke="#a1012f" points="819.099,-1054.77 824.801,-1045.4 819.718,-1049.81 820.336,-1044.85 820.336,-1044.85 820.336,-1044.85 819.718,-1049.81 815.87,-1044.29 819.099,-1054.77 819.099,-1054.77"/>
</g>
<!-- School -->
<g id="node7" class="node"><title>School</title>
<path fill="none" stroke="black" d="M554.546,-1085C554.546,-1085 667.454,-1085 667.454,-1085 673.454,-1085 679.454,-1091 679.454,-1097 679.454,-1097 679.454,-1257 679.454,-1257 679.454,-1263 673.454,-1269 667.454,-1269 667.454,-1269 554.546,-1269 554.546,-1269 548.546,-1269 542.546,-1263 542.546,-1257 542.546,-1257 542.546,-1097 542.546,-1097 542.546,-1091 548.546,-1085 554.546,-1085"/>
<text text-anchor="middle" x="611" y="-1251" font-family="Times,serif" font-size="14.00">School</text>
<polyline fill="none" stroke="black" points="542.546,-1244.2 679.454,-1244.2 "/>
<text text-anchor="start" x="550.546" y="-1226.2" font-family="Times,serif" font-size="14.00">id :integer</text>
<text text-anchor="start" x="550.546" y="-1209.4" font-family="Times,serif" font-size="14.00">name :string</text>
<text text-anchor="start" x="550.546" y="-1192.6" font-family="Times,serif" font-size="14.00">town :string</text>
<text text-anchor="start" x="550.546" y="-1175.8" font-family="Times,serif" font-size="14.00">country :string</text>
<text text-anchor="start" x="550.546" y="-1159" font-family="Times,serif" font-size="14.00">deleted_at :datetime</text>
<text text-anchor="start" x="550.546" y="-1142.2" font-family="Times,serif" font-size="14.00">teacher_code :string</text>
<text text-anchor="start" x="550.546" y="-1125.4" font-family="Times,serif" font-size="14.00">observer_code :string</text>
<text text-anchor="start" x="550.546" y="-1108.6" font-family="Times,serif" font-size="14.00">created_at :datetime</text>
<text text-anchor="start" x="550.546" y="-1091.8" font-family="Times,serif" font-size="14.00">updated_at :datetime</text>
</g>
<!-- School&#45;&gt;Department -->
<g id="edge15" class="edge"><title>School&#45;&gt;Department</title>
<path fill="none" stroke="#8de05b" d="M591.612,-1074.71C591.066,-1071.78 590.528,-1068.87 590,-1066 561.885,-913.293 563.5,-873.393 529,-722 528.323,-719.031 527.612,-716.015 526.874,-712.974"/>
<polygon fill="#8de05b" stroke="#8de05b" points="591.656,-1074.95 589.066,-1085.61 592.573,-1079.87 593.49,-1084.78 593.49,-1084.78 593.49,-1084.78 592.573,-1079.87 597.913,-1083.95 591.656,-1074.95 591.656,-1074.95"/>
<polygon fill="#8de05b" stroke="#8de05b" points="526.857,-712.905 528.803,-702.113 525.647,-708.053 524.437,-703.202 524.437,-703.202 524.437,-703.202 525.647,-708.053 520.071,-704.291 526.857,-712.905 526.857,-712.905"/>
</g>
<!-- School&#45;&gt;Program -->
<g id="edge14" class="edge"><title>School&#45;&gt;Program</title>
<path fill="none" stroke="#e8e2f6" d="M543.054,-1078.09C518.25,-1042.34 490.626,-1002.54 467.489,-969.196"/>
<ellipse fill="none" stroke="#e8e2f6" cx="545.409" cy="-1081.48" rx="4.00002" ry="4.00002"/>
<polygon fill="#e8e2f6" stroke="#e8e2f6" points="467.409,-969.081 465.404,-958.3 464.558,-964.973 461.707,-960.865 461.707,-960.865 461.707,-960.865 464.558,-964.973 458.01,-963.431 467.409,-969.081 467.409,-969.081"/>
</g>
<!-- School&#45;&gt;Teacher -->
<g id="edge16" class="edge"><title>School&#45;&gt;Teacher</title>
<path fill="none" stroke="#0f8a7d" d="M610.219,-1076.96C609.052,-928.983 606.87,-652.18 605.732,-507.878"/>
<ellipse fill="none" stroke="#0f8a7d" cx="610.251" cy="-1080.96" rx="4" ry="4"/>
<polygon fill="#0f8a7d" stroke="#0f8a7d" points="605.731,-507.72 610.152,-497.685 605.692,-502.72 605.652,-497.72 605.652,-497.72 605.652,-497.72 605.692,-502.72 601.152,-497.756 605.731,-507.72 605.731,-507.72"/>
</g>
<!-- School&#45;&gt;Uuid -->
<g id="edge13" class="edge"><title>School&#45;&gt;Uuid</title>
<path fill="none" stroke="#c4803a" d="M622.819,-1076.77C623.223,-1073.14 623.618,-1069.54 624,-1066 650.393,-821.807 594.906,-747.167 677.903,-516 681.16,-506.928 687.19,-507.22 690,-498 711.77,-426.577 693.411,-404.589 690,-330 685.106,-222.998 716.92,-185.29 668,-90 656.08,-66.7809 633.031,-47.892 614.397,-35.4506"/>
<ellipse fill="none" stroke="#c4803a" cx="622.368" cy="-1080.8" rx="4.00001" ry="4.00001"/>
<ellipse fill="#c4803a" stroke="#c4803a" cx="610.609" cy="-33.0089" rx="4.00002" ry="4.00002"/>
<text text-anchor="middle" x="710.048" y="-519.4" font-family="Times,serif" font-size="14.00">uuid_object</text>
</g>
<!-- Teacher&#45;&gt;Course -->
<g id="edge19" class="edge"><title>Teacher&#45;&gt;Course</title>
<path fill="none" stroke="#4f531e" d="M582.655,-322.565C578.746,-312.631 574.22,-302.903 569,-294 561.297,-280.863 551.717,-268.085 541.488,-256.166"/>
<ellipse fill="none" stroke="#4f531e" cx="584.116" cy="-326.449" rx="4.00001" ry="4.00001"/>
<polygon fill="#4f531e" stroke="#4f531e" points="541.305,-255.958 538.06,-245.484 537.996,-252.21 534.687,-248.462 534.687,-248.462 534.687,-248.462 537.996,-252.21 531.313,-251.44 541.305,-255.958 541.305,-255.958"/>
</g>
<!-- Teacher&#45;&gt;Uuid -->
<g id="edge18" class="edge"><title>Teacher&#45;&gt;Uuid</title>
<path fill="none" stroke="#817523" d="M600.599,-321.742C596.252,-231.592 589.88,-99.4557 587.228,-44.4687"/>
<ellipse fill="none" stroke="#817523" cx="600.801" cy="-325.929" rx="4" ry="4"/>
<ellipse fill="#817523" stroke="#817523" cx="587.028" cy="-40.3196" rx="4" ry="4"/>
<text text-anchor="middle" x="631.048" y="-177.4" font-family="Times,serif" font-size="14.00">uuid_object</text>
</g>
<!-- User&#45;&gt;Uuid -->
<g id="edge21" class="edge"><title>User&#45;&gt;Uuid</title>
<path fill="none" stroke="#141367" d="M774.085,-735.11C764.625,-700.716 758,-664.1 758,-629 758,-629 758,-629 758,-182 758,-123.023 765.052,-95.3517 723,-54 697.081,-28.5125 655.309,-20.8001 624.696,-18.8272"/>
<ellipse fill="none" stroke="#141367" cx="775.191" cy="-739.024" rx="4.00001" ry="4.00001"/>
<ellipse fill="#141367" stroke="#141367" cx="620.375" cy="-18.612" rx="4" ry="4"/>
<text text-anchor="middle" x="791.048" y="-408.4" font-family="Times,serif" font-size="14.00">uuid_object</text>
</g>
<!-- Object -->
<g id="node10" class="node"><title>Object</title>
<ellipse fill="none" stroke="black" cx="261" cy="-1351" rx="36.1697" ry="18"/>
<text text-anchor="middle" x="261" y="-1345.4" font-family="Times,serif" font-size="14.00">Object</text>
</g>
<!-- Object&#45;&gt;Ability -->
<g id="edge1" class="edge"><title>Object&#45;&gt;Ability</title>
<path fill="none" stroke="black" d="M261,-1332.88C261,-1303.48 261,-1243.09 261,-1207.02"/>
<polyline fill="none" stroke="black" points="261,-1201.88 261,-1206.88 "/>
</g>
<!-- ActiveRecord::Base -->
<g id="node12" class="node"><title>ActiveRecord::Base</title>
<ellipse fill="none" stroke="black" cx="611" cy="-1351" rx="88.2033" ry="18"/>
<text text-anchor="middle" x="611" y="-1345.4" font-family="Times,serif" font-size="14.00">ActiveRecord::Base</text>
</g>
<!-- ActiveRecord::Base&#45;&gt;Course -->
<g id="edge3" class="edge"><title>ActiveRecord::Base&#45;&gt;Course</title>
<path fill="none" stroke="black" d="M540.206,-1340.11C453.211,-1323.5 317,-1281.04 317,-1178 317,-1178 317,-1178 317,-413 317,-353.849 352.062,-297.678 387.822,-255.771"/>
<polyline fill="none" stroke="black" points="391.283,-251.76 388.016,-255.545 "/>
</g>
<!-- ActiveRecord::Base&#45;&gt;Department -->
<g id="edge7" class="edge"><title>ActiveRecord::Base&#45;&gt;Department</title>
<path fill="none" stroke="black" d="M587.853,-1333.58C569.596,-1319.15 545.378,-1296.37 534,-1270 491.417,-1171.3 495.416,-857.207 499.967,-708.506"/>
<polyline fill="none" stroke="black" points="500.129,-703.287 499.974,-708.284 "/>
</g>
<!-- ActiveRecord::Base&#45;&gt;Program -->
<g id="edge10" class="edge"><title>ActiveRecord::Base&#45;&gt;Program</title>
<path fill="none" stroke="black" d="M565.47,-1335.48C542.823,-1326 516.95,-1311.35 501,-1290 429.473,-1194.27 415.501,-1051.03 414.158,-965.905"/>
<polyline fill="none" stroke="black" points="414.093,-960.887 414.158,-965.887 "/>
</g>
<!-- ActiveRecord::Base&#45;&gt;Role -->
<g id="edge12" class="edge"><title>ActiveRecord::Base&#45;&gt;Role</title>
<path fill="none" stroke="black" d="M649.469,-1334.66C672.423,-1324.28 701.241,-1309.02 723,-1290 736.791,-1277.95 749.558,-1263.13 760.687,-1248.26"/>
<polyline fill="none" stroke="black" points="763.782,-1244.07 760.812,-1248.09 "/>
</g>
<!-- ActiveRecord::Base&#45;&gt;School -->
<g id="edge17" class="edge"><title>ActiveRecord::Base&#45;&gt;School</title>
<path fill="none" stroke="black" d="M611,-1332.88C611,-1318.58 611,-1296.95 611,-1274.35"/>
<polyline fill="none" stroke="black" points="611,-1269.21 611,-1274.21 "/>
</g>
<!-- ActiveRecord::Base&#45;&gt;Teacher -->
<g id="edge20" class="edge"><title>ActiveRecord::Base&#45;&gt;Teacher</title>
<path fill="none" stroke="black" d="M634.654,-1333.34C652.948,-1318.93 676.958,-1296.31 688,-1270 751.327,-1119.13 706.666,-697.605 709,-534 709.114,-526.001 712.115,-523.368 709,-516 703.232,-502.358 694.62,-489.651 684.777,-478.17"/>
<polyline fill="none" stroke="black" points="681.394,-474.323 684.696,-478.078 "/>
</g>
<!-- ActiveRecord::Base&#45;&gt;User -->
<g id="edge22" class="edge"><title>ActiveRecord::Base&#45;&gt;User</title>
<path fill="none" stroke="black" d="M678.153,-1339.27C749.383,-1326.36 854.92,-1302.32 879,-1270 925.225,-1207.96 920.255,-1123.3 901.502,-1050.12"/>
<polyline fill="none" stroke="black" points="900.129,-1044.87 901.394,-1049.7 "/>
</g>
</g>
</svg>
