<?xml version="1.0" encoding="UTF-8" standalone="no"?>
<!DOCTYPE svg PUBLIC "-//W3C//DTD SVG 1.1//EN"
 "http://www.w3.org/Graphics/SVG/1.1/DTD/svg11.dtd">
<!-- Generated by graphviz version 2.34.0 (20140114.1349)
 -->
<!-- Title: models_diagram Pages: 1 -->
<svg width="802pt" height="586pt"
 viewBox="0.00 0.00 802.10 586.00" xmlns="http://www.w3.org/2000/svg" xmlns:xlink="http://www.w3.org/1999/xlink">
<g id="graph0" class="graph" transform="scale(1 1) rotate(0) translate(4 582)">
<title>models_diagram</title>
<polygon fill="white" stroke="white" points="-4,4 -4,-582 798.097,-582 798.097,4 -4,4"/>
<!-- _diagram_info -->
<g id="node1" class="node"><title>_diagram_info</title>
<text text-anchor="start" x="7.31226" y="-561" font-family="Times,serif" font-size="13.00">Models diagram</text>
<text text-anchor="start" x="7.31226" y="-545.4" font-family="Times,serif" font-size="13.00">Date: Jan 14 2014 &#45; 14:53</text>
<text text-anchor="start" x="7.31226" y="-529.8" font-family="Times,serif" font-size="13.00">Migration version: 20131214225204</text>
<text text-anchor="start" x="7.31226" y="-514.2" font-family="Times,serif" font-size="13.00">Generated by RailRoady 1.1.1</text>
<text text-anchor="start" x="7.31226" y="-498.6" font-family="Times,serif" font-size="13.00">http://railroady.prestonlee.com</text>
</g>
<!-- Ability -->
<g id="node2" class="node"><title>Ability</title>
<polygon fill="none" stroke="black" points="288.255,-454 233.745,-454 233.745,-418 288.255,-418 288.255,-454"/>
<text text-anchor="middle" x="261" y="-430.4" font-family="Times,serif" font-size="14.00">Ability</text>
</g>
<!-- Course -->
<g id="node3" class="node"><title>Course</title>
<ellipse fill="none" stroke="black" cx="429" cy="-108" rx="38.0929" ry="18"/>
<text text-anchor="middle" x="429" y="-102.4" font-family="Times,serif" font-size="14.00">Course</text>
</g>
<!-- Uuid -->
<g id="node11" class="node"><title>Uuid</title>
<ellipse fill="none" stroke="black" cx="523" cy="-18" rx="30.0272" ry="18"/>
<text text-anchor="middle" x="523" y="-12.4" font-family="Times,serif" font-size="14.00">Uuid</text>
</g>
<!-- Course&#45;&gt;Uuid -->
<g id="edge2" class="edge"><title>Course&#45;&gt;Uuid</title>
<path fill="none" stroke="#467e89" d="M414.344,-82.916C410.445,-73.2254 408.805,-62.3846 414.903,-54 430.748,-32.2146 460.449,-23.7121 484.714,-20.5205"/>
<ellipse fill="none" stroke="#467e89" cx="416.148" cy="-86.7523" rx="4.00002" ry="4.00002"/>
<ellipse fill="#467e89" stroke="#467e89" cx="488.731" cy="-20.073" rx="4.00001" ry="4.00001"/>
<text text-anchor="middle" x="447.048" y="-57.4" font-family="Times,serif" font-size="14.00">uuid_object</text>
</g>
<!-- Department -->
<g id="node4" class="node"><title>Department</title>
<ellipse fill="none" stroke="black" cx="493" cy="-288" rx="56.4286" ry="18"/>
<text text-anchor="middle" x="493" y="-282.4" font-family="Times,serif" font-size="14.00">Department</text>
</g>
<!-- Department&#45;&gt;Course -->
<g id="edge5" class="edge"><title>Department&#45;&gt;Course</title>
<path fill="none" stroke="#155090" d="M484.07,-262.164C472.104,-228.884 450.951,-170.053 438.636,-135.801"/>
<ellipse fill="none" stroke="#155090" cx="485.51" cy="-266.169" rx="4.00001" ry="4.00001"/>
<polygon fill="#155090" stroke="#155090" points="438.502,-135.426 439.353,-124.493 436.81,-130.721 435.118,-126.016 435.118,-126.016 435.118,-126.016 436.81,-130.721 430.883,-127.538 438.502,-135.426 438.502,-135.426"/>
</g>
<!-- Teacher -->
<g id="node8" class="node"><title>Teacher</title>
<ellipse fill="none" stroke="black" cx="576" cy="-198" rx="41.1757" ry="18"/>
<text text-anchor="middle" x="576" y="-192.4" font-family="Times,serif" font-size="14.00">Teacher</text>
</g>
<!-- Department&#45;&gt;Teacher -->
<g id="edge6" class="edge"><title>Department&#45;&gt;Teacher</title>
<path fill="none" stroke="#5e1dd2" d="M515.752,-262.878C527.69,-250.221 542.248,-234.785 554.063,-222.258"/>
<polygon fill="#5e1dd2" stroke="#5e1dd2" points="515.473,-263.173 505.338,-267.36 512.042,-266.811 508.612,-270.448 508.612,-270.448 508.612,-270.448 512.042,-266.811 511.885,-273.536 515.473,-263.173 515.473,-263.173"/>
<polygon fill="#5e1dd2" stroke="#5e1dd2" points="554.156,-222.16 564.291,-217.973 557.587,-218.523 561.017,-214.885 561.017,-214.885 561.017,-214.885 557.587,-218.523 557.744,-211.798 554.156,-222.16 554.156,-222.16"/>
</g>
<!-- Department&#45;&gt;Uuid -->
<g id="edge4" class="edge"><title>Department&#45;&gt;Uuid</title>
<path fill="none" stroke="#823b62" d="M495.822,-261.79C501.544,-210.677 514.451,-95.3675 520.175,-44.2344"/>
<ellipse fill="none" stroke="#823b62" cx="495.367" cy="-265.853" rx="4.00001" ry="4.00001"/>
<ellipse fill="#823b62" stroke="#823b62" cx="520.649" cy="-40.0044" rx="4.00001" ry="4.00001"/>
<text text-anchor="middle" x="541.048" y="-147.4" font-family="Times,serif" font-size="14.00">uuid_object</text>
</g>
<!-- Program -->
<g id="node5" class="node"><title>Program</title>
<ellipse fill="none" stroke="black" cx="421" cy="-362" rx="43.942" ry="18"/>
<text text-anchor="middle" x="421" y="-356.4" font-family="Times,serif" font-size="14.00">Program</text>
</g>
<!-- Program&#45;&gt;Department -->
<g id="edge9" class="edge"><title>Program&#45;&gt;Department</title>
<path fill="none" stroke="#3d3c73" d="M442.769,-339.231C451.169,-330.831 460.801,-321.199 469.369,-312.631"/>
<ellipse fill="none" stroke="#3d3c73" cx="439.808" cy="-342.192" rx="4.00002" ry="4.00002"/>
<polygon fill="#3d3c73" stroke="#3d3c73" points="469.495,-312.505 479.748,-308.616 473.031,-308.969 476.566,-305.434 476.566,-305.434 476.566,-305.434 473.031,-308.969 473.384,-302.252 469.495,-312.505 469.495,-312.505"/>
</g>
<!-- Program&#45;&gt;Uuid -->
<g id="edge8" class="edge"><title>Program&#45;&gt;Uuid</title>
<path fill="none" stroke="#1dfa99" d="M392.807,-341.12C378.043,-328.213 363,-309.927 363,-289 363,-289 363,-289 363,-107 363,-51.5237 437.762,-30.7717 485.077,-23.1933"/>
<ellipse fill="none" stroke="#1dfa99" cx="395.993" cy="-343.761" rx="4.00002" ry="4.00002"/>
<ellipse fill="#1dfa99" stroke="#1dfa99" cx="489.324" cy="-22.5579" rx="4.00001" ry="4.00001"/>
<text text-anchor="middle" x="396.048" y="-192.4" font-family="Times,serif" font-size="14.00">uuid_object</text>
</g>
<!-- Role -->
<g id="node6" class="node"><title>Role</title>
<ellipse fill="none" stroke="black" cx="737" cy="-436" rx="28.9157" ry="18"/>
<text text-anchor="middle" x="737" y="-430.4" font-family="Times,serif" font-size="14.00">Role</text>
</g>
<!-- User -->
<g id="node9" class="node"><title>User</title>
<ellipse fill="none" stroke="black" cx="737" cy="-362" rx="28.9087" ry="18"/>
<text text-anchor="middle" x="737" y="-356.4" font-family="Times,serif" font-size="14.00">User</text>
</g>
<!-- Role&#45;&gt;User -->
<g id="edge11" class="edge"><title>Role&#45;&gt;User</title>
<path fill="none" stroke="#8969ad" d="M737,-407.719C737,-402.145 737,-396.274 737,-390.686"/>
<polygon fill="#8969ad" stroke="#8969ad" points="737,-407.937 732.5,-417.937 737,-412.937 737,-417.937 737,-417.937 737,-417.937 737,-412.937 741.5,-417.937 737,-407.937 737,-407.937"/>
<polygon fill="#8969ad" stroke="#8969ad" points="737,-390.441 741.5,-380.441 737,-385.441 737,-380.441 737,-380.441 737,-380.441 737,-385.441 732.5,-380.441 737,-390.441 737,-390.441"/>
</g>
<!-- School -->
<g id="node7" class="node"><title>School</title>
<ellipse fill="none" stroke="black" cx="568" cy="-436" rx="37.2949" ry="18"/>
<text text-anchor="middle" x="568" y="-430.4" font-family="Times,serif" font-size="14.00">School</text>
</g>
<!-- School&#45;&gt;Department -->
<g id="edge15" class="edge"><title>School&#45;&gt;Department</title>
<path fill="none" stroke="#7159d2" d="M554.795,-409.295C541.19,-382.809 520.092,-341.739 506.411,-315.107"/>
<polygon fill="#7159d2" stroke="#7159d2" points="554.827,-409.357 555.394,-420.308 557.112,-413.804 559.397,-418.252 559.397,-418.252 559.397,-418.252 557.112,-413.804 563.399,-416.196 554.827,-409.357 554.827,-409.357"/>
<polygon fill="#7159d2" stroke="#7159d2" points="506.304,-314.897 505.737,-303.946 504.019,-310.45 501.734,-306.002 501.734,-306.002 501.734,-306.002 504.019,-310.45 497.731,-308.059 506.304,-314.897 506.304,-314.897"/>
</g>
<!-- School&#45;&gt;Program -->
<g id="edge14" class="edge"><title>School&#45;&gt;Program</title>
<path fill="none" stroke="#4c1489" d="M535.29,-418.979C512.167,-407.653 481.162,-392.467 457.28,-380.77"/>
<ellipse fill="none" stroke="#4c1489" cx="539.138" cy="-420.863" rx="4.00002" ry="4.00002"/>
<polygon fill="#4c1489" stroke="#4c1489" points="457.162,-380.712 450.16,-372.272 452.671,-378.512 448.181,-376.313 448.181,-376.313 448.181,-376.313 452.671,-378.512 446.202,-380.354 457.162,-380.712 457.162,-380.712"/>
</g>
<!-- School&#45;&gt;Teacher -->
<g id="edge16" class="edge"><title>School&#45;&gt;Teacher</title>
<path fill="none" stroke="#b35fa5" d="M568.862,-409.558C570.381,-364.756 573.519,-272.184 575.079,-226.179"/>
<ellipse fill="none" stroke="#b35fa5" cx="568.724" cy="-413.649" rx="4" ry="4"/>
<polygon fill="#b35fa5" stroke="#b35fa5" points="575.083,-226.055 579.919,-216.213 575.252,-221.058 575.422,-216.061 575.422,-216.061 575.422,-216.061 575.252,-221.058 570.924,-215.908 575.083,-226.055 575.083,-226.055"/>
</g>
<!-- School&#45;&gt;Uuid -->
<g id="edge13" class="edge"><title>School&#45;&gt;Uuid</title>
<path fill="none" stroke="#bfe6c2" d="M579.084,-410.637C580.502,-407.105 581.855,-403.486 583,-400 604.745,-333.769 664.091,-151.355 631,-90 615.362,-61.0051 582.141,-41.9156 556.647,-30.9064"/>
<ellipse fill="none" stroke="#bfe6c2" cx="577.482" cy="-414.452" rx="4.00002" ry="4.00002"/>
<ellipse fill="#bfe6c2" stroke="#bfe6c2" cx="552.707" cy="-29.2763" rx="4.00001" ry="4.00001"/>
<text text-anchor="middle" x="662.048" y="-237.4" font-family="Times,serif" font-size="14.00">uuid_object</text>
</g>
<!-- Teacher&#45;&gt;Course -->
<g id="edge19" class="edge"><title>Teacher&#45;&gt;Course</title>
<path fill="none" stroke="#fcd27a" d="M574.692,-171.785C572.939,-161.949 569.311,-151.304 562,-144 549.716,-131.727 508.455,-122.102 475.111,-116.077"/>
<ellipse fill="none" stroke="#fcd27a" cx="575.232" cy="-175.802" rx="4.00001" ry="4.00001"/>
<polygon fill="#fcd27a" stroke="#fcd27a" points="474.909,-116.042 465.831,-109.891 469.984,-115.183 465.058,-114.324 465.058,-114.324 465.058,-114.324 469.984,-115.183 464.285,-118.757 474.909,-116.042 474.909,-116.042"/>
</g>
<!-- Teacher&#45;&gt;Uuid -->
<g id="edge18" class="edge"><title>Teacher&#45;&gt;Uuid</title>
<path fill="none" stroke="#2979da" d="M582.94,-171.847C584.255,-162.822 584.332,-152.726 581,-144 577.171,-133.974 570.526,-135.141 564.903,-126 548.706,-99.6664 536.763,-66.0052 529.86,-43.5376"/>
<ellipse fill="none" stroke="#2979da" cx="582.188" cy="-175.833" rx="4.00001" ry="4.00001"/>
<ellipse fill="#2979da" stroke="#2979da" cx="528.692" cy="-39.6331" rx="4.00001" ry="4.00001"/>
<text text-anchor="middle" x="597.048" y="-102.4" font-family="Times,serif" font-size="14.00">uuid_object</text>
</g>
<!-- User&#45;&gt;Uuid -->
<g id="edge21" class="edge"><title>User&#45;&gt;Uuid</title>
<path fill="none" stroke="#df314d" d="M732.301,-335.845C730.119,-322.063 728,-304.648 728,-289 728,-289 728,-289 728,-107 728,-35.2375 620.612,-21.2559 561.285,-19.0073"/>
<ellipse fill="none" stroke="#df314d" cx="732.989" cy="-339.964" rx="4.00001" ry="4.00001"/>
<ellipse fill="#df314d" stroke="#df314d" cx="557.247" cy="-18.8847" rx="4" ry="4"/>
<text text-anchor="middle" x="761.048" y="-192.4" font-family="Times,serif" font-size="14.00">uuid_object</text>
</g>
<!-- Object -->
<g id="node10" class="node"><title>Object</title>
<ellipse fill="none" stroke="black" cx="261" cy="-535" rx="36.1697" ry="18"/>
<text text-anchor="middle" x="261" y="-529.4" font-family="Times,serif" font-size="14.00">Object</text>
</g>
<!-- Object&#45;&gt;Ability -->
<g id="edge1" class="edge"><title>Object&#45;&gt;Ability</title>
<path fill="none" stroke="black" d="M261,-516.658C261,-500.658 261,-476.811 261,-459.379"/>
<polyline fill="none" stroke="black" points="261,-454.192 261,-459.192 "/>
</g>
<!-- ActiveRecord::Base -->
<g id="node12" class="node"><title>ActiveRecord::Base</title>
<ellipse fill="none" stroke="black" cx="568" cy="-535" rx="88.2033" ry="18"/>
<text text-anchor="middle" x="568" y="-529.4" font-family="Times,serif" font-size="14.00">ActiveRecord::Base</text>
</g>
<!-- ActiveRecord::Base&#45;&gt;Course -->
<g id="edge3" class="edge"><title>ActiveRecord::Base&#45;&gt;Course</title>
<path fill="none" stroke="black" d="M504.338,-522.433C429.976,-507.066 317,-477.118 317,-437 317,-437 317,-437 317,-197 317,-157.639 360.298,-133.205 393.052,-120.352"/>
<polyline fill="none" stroke="black" points="397.802,-118.539 393.13,-120.322 "/>
</g>
<!-- ActiveRecord::Base&#45;&gt;Department -->
<g id="edge7" class="edge"><title>ActiveRecord::Base&#45;&gt;Department</title>
<path fill="none" stroke="black" d="M555.609,-517.12C544.78,-501.522 529.498,-477.306 521,-454 503.217,-405.229 496.618,-344.166 494.253,-311.724"/>
<polyline fill="none" stroke="black" points="493.884,-306.388 494.23,-311.376 "/>
</g>
<!-- ActiveRecord::Base&#45;&gt;Program -->
<g id="edge10" class="edge"><title>ActiveRecord::Base&#45;&gt;Program</title>
<path fill="none" stroke="black" d="M536.702,-518.071C518.195,-507.483 495.271,-492.198 479,-474 455.051,-447.216 437.854,-408.76 428.67,-384.861"/>
<polyline fill="none" stroke="black" points="426.833,-379.991 428.598,-384.669 "/>
</g>
<!-- ActiveRecord::Base&#45;&gt;Role -->
<g id="edge12" class="edge"><title>ActiveRecord::Base&#45;&gt;Role</title>
<path fill="none" stroke="black" d="M606.62,-518.786C632.308,-507.914 666.291,-492.054 694,-474 702.355,-468.556 710.827,-461.631 718.017,-455.247"/>
<polyline fill="none" stroke="black" points="721.871,-451.77 718.159,-455.12 "/>
</g>
<!-- ActiveRecord::Base&#45;&gt;School -->
<g id="edge17" class="edge"><title>ActiveRecord::Base&#45;&gt;School</title>
<path fill="none" stroke="black" d="M568,-516.658C568,-500.658 568,-476.811 568,-459.379"/>
<polyline fill="none" stroke="black" points="568,-454.192 568,-459.192 "/>
</g>
<!-- ActiveRecord::Base&#45;&gt;Teacher -->
<g id="edge20" class="edge"><title>ActiveRecord::Base&#45;&gt;Teacher</title>
<path fill="none" stroke="black" d="M579.044,-517.031C589.049,-501.175 603.75,-476.619 614,-454 653.16,-367.588 667.457,-345.589 683,-252 684.311,-244.108 687.696,-240.477 683,-234 669.028,-214.729 644.133,-205.872 621.87,-201.883"/>
<polyline fill="none" stroke="black" points="616.87,-201.058 621.803,-201.872 "/>
</g>
<!-- ActiveRecord::Base&#45;&gt;User -->
<g id="edge22" class="edge"><title>ActiveRecord::Base&#45;&gt;User</title>
<path fill="none" stroke="black" d="M644.337,-525.822C690.459,-516.504 745.806,-496.581 775,-454 790.571,-431.289 771.577,-401.196 755.304,-381.961"/>
<polyline fill="none" stroke="black" points="751.675,-377.791 754.958,-381.562 "/>
</g>
</g>
</svg>
